 <svg xmlns="http://www.w3.org/2000/svg" class="mt-3 mr-2" width="27" height="30" viewBox="0 0 27 30" fill="none">
              <path d="M13.2821 14.9167C16.8489 14.9167 19.7404 12.0252 19.7404 8.45833C19.7404 4.89149 16.8489 2 13.2821 2C9.71522 2 6.82373 4.89149 6.82373 8.45833C6.82373 12.0252 9.71522 14.9167 13.2821 14.9167Z" stroke="#9dbf92" stroke-width="3" stroke-linecap="round" stroke-linejoin="round"/>
              <path d="M19.7403 17.5H20.195C21.1393 17.5003 22.051 17.8453 22.7588 18.4704C23.4667 19.0955 23.9219 19.9575 24.039 20.8945L24.544 24.9297C24.5894 25.2932 24.557 25.6622 24.4489 26.0122C24.3409 26.3623 24.1596 26.6853 23.9171 26.9599C23.6746 27.2345 23.3765 27.4544 23.0425 27.605C22.7086 27.7556 22.3464 27.8334 21.9801 27.8333H4.5839C4.21756 27.8334 3.85539 27.7556 3.52143 27.605C3.18747 27.4544 2.88936 27.2345 2.64688 26.9599C2.4044 26.6853 2.2231 26.3623 2.11501 26.0122C2.00692 25.6622 1.97451 25.2932 2.01994 24.9297L2.52369 20.8945C2.64084 19.957 3.09643 19.0947 3.8048 18.4695C4.51317 17.8444 5.42552 17.4996 6.37027 17.5H6.82365" stroke="#9dbf92" stroke-width="3" stroke-linecap="round" stroke-linejoin="round"/>
              </svg>
