 <svg xmlns="http://www.w3.org/2000/svg"  class="mt-3 mr-2" width="30" height="30" viewBox="0 0 30 30" fill="none">
              <path d="M9.75 22.6643L12.3333 20.081H14.9167L16.6733 18.3243C18.469 18.9499 20.4238 18.9474 22.2178 18.3173C24.0119 17.6871 25.5389 16.4667 26.5489 14.8556C27.559 13.2446 27.9922 11.3384 27.7778 9.44906C27.5634 7.55971 26.714 5.79909 25.3686 4.45538C24.0232 3.11167 22.2615 2.26445 20.3719 2.05239C18.4822 1.84033 16.5766 2.27598 14.9668 3.28805C13.3571 4.30012 12.1385 5.82865 11.5106 7.62348C10.8827 9.41831 10.8827 11.3731 11.5105 13.168L2 22.6643V27.831H7.16667L9.75 25.2476V22.6643Z" stroke="#9dbf92" stroke-width="3" stroke-linecap="round" stroke-linejoin="round"/>
              <path d="M21.3752 9.74762C22.0885 9.74762 22.6668 9.16933 22.6668 8.45596C22.6668 7.74259 22.0885 7.16429 21.3752 7.16429C20.6618 7.16429 20.0835 7.74259 20.0835 8.45596C20.0835 9.16933 20.6618 9.74762 21.3752 9.74762Z" stroke="#9dbf92" stroke-width="3" stroke-linecap="round" stroke-linejoin="round"/>
              </svg>
